<svg xmlns="http://www.w3.org/2000/svg" xml:space="preserve" width="800" height="900" viewBox="0 0 211.667 238.125">
  <path fill="#323232" d="M105.833 37.042c-52.605 0-95.25 42.645-95.25 95.25v74.181c0 18.325 21.705 27.992 35.327 15.734l6.867-6.181a21.166 21.166 0 0 1 23.626-3.2l19.965 9.983a21.167 21.167 0 0 0 18.931 0l19.964-9.982a21.166 21.166 0 0 1 23.627 3.199l6.867 6.18c13.621 12.26 35.326 2.592 35.326-15.733v-74.181c0-52.605-42.644-95.25-95.25-95.25z" opacity=".1" style="stroke-width:10.5833"/>
  <path stroke="#323232" stroke-width="21.167" d="M105.833 37.042c-52.605 0-95.25 42.645-95.25 95.25v74.181c0 18.325 21.705 27.992 35.327 15.734l6.867-6.181a21.166 21.166 0 0 1 23.626-3.2l19.965 9.983a21.167 21.167 0 0 0 18.931 0l19.964-9.982a21.166 21.166 0 0 1 23.627 3.199l6.867 6.18c13.621 12.26 35.326 2.592 35.326-15.733v-74.181c0-52.605-42.644-95.25-95.25-95.25z" style="fill:none"/>
  <path stroke="#323232" stroke-linecap="round" stroke-width="21.167" d="M63.5 153.458c9.654 12.853 25.024 21.167 42.338 21.167 17.312 0 32.682-8.314 42.336-21.167M74.083 111.244v-.119M137.583 111.244v-.119" style="fill:none"/>
  <path fill="#1c274c" d="M172.287 99.68c0 14.273-11.57 25.843-25.843 25.843S120.6 113.953 120.6 99.68s11.57-25.843 25.843-25.843 25.843 11.57 25.843 25.843z" style="stroke-width:7.38372"/>
  <path fill="#1c274c" fill-rule="evenodd" d="M26.458 51.686a5.538 5.538 0 0 1 5.538-5.538h147.675a5.538 5.538 0 0 1 0 11.076H31.996a5.538 5.538 0 0 1-5.538-5.538z" clip-rule="evenodd" style="stroke-width:7.38372"/>
  <path fill="#1c274c" d="m48.148 46.148 3.148-12.59C55.325 17.44 57.339 9.382 63.348 4.69 69.357 0 77.663 0 94.276 0h23.115c16.613 0 24.919 0 30.928 4.691 6.008 4.692 8.023 12.75 12.052 28.866l3.148 12.591z" opacity=".5" style="stroke-width:7.38372"/>
  <path fill="#1c274c" d="M91.066 99.68c0 14.273-11.57 25.843-25.843 25.843S39.38 113.953 39.38 99.68s11.57-25.843 25.843-25.843 25.843 11.57 25.843 25.843z" style="stroke-width:7.38372"/>
  <path fill="#1c274c" d="M90.208 106.3c.558-2.113.856-4.332.856-6.62 0-2.014-.231-3.975-.667-5.857l3.054-1.527a27.687 27.687 0 0 1 24.766 0l3.048 1.525a25.925 25.925 0 0 0-.666 5.86c0 2.287.296 4.504.855 6.616l-8.19-4.095a16.615 16.615 0 0 0-14.86 0z" opacity=".5" style="stroke-width:7.38372"/>
</svg>
