<svg xmlns="http://www.w3.org/2000/svg"  width="800" height="800">
	<svg x="0" y="0" width="800" height="800" viewBox="0 0 24 24" fill="none" xmlns="http://www.w3.org/2000/svg">
		<path opacity="0.1" d="M12 3C7.02944 3 3 7.02944 3 12V19.0093C3 20.7408 5.05088 21.6542 6.33793 20.4959L6.98682 19.9119C7.59805 19.3618 8.48368 19.2418 9.21918 19.6096L11.1056 20.5528C11.6686 20.8343 12.3314 20.8343 12.8944 20.5528L14.7808 19.6096C15.5163 19.2418 16.402 19.3618 17.0132 19.9119L17.6621 20.4959C18.9491 21.6542 21 20.7408 21 19.0093V12C21 7.02944 16.9706 3 12 3Z" fill="#323232"/>
		<path d="M12 3C7.02944 3 3 7.02944 3 12V19.0093C3 20.7408 5.05088 21.6542 6.33793 20.4959L6.98682 19.9119C7.59805 19.3618 8.48368 19.2418 9.21918 19.6096L11.1056 20.5528C11.6686 20.8343 12.3314 20.8343 12.8944 20.5528L14.7808 19.6096C15.5163 19.2418 16.402 19.3618 17.0132 19.9119L17.6621 20.4959C18.9491 21.6542 21 20.7408 21 19.0093V12C21 7.02944 16.9706 3 12 3Z" stroke="#323232" stroke-width="2"/>
		<path d="M8 14C8.91221 15.2144 10.3645 16 12.0004 16C13.6362 16 15.0885 15.2144 16.0007 14" stroke="#323232" stroke-width="2" stroke-linecap="round"/>
		<path d="M9 10.0112V10" stroke="#323232" stroke-width="2" stroke-linecap="round"/>
		<path d="M15 10.0112V10" stroke="#323232" stroke-width="2" stroke-linecap="round"/>
	</svg>
	<svg x="100" y="-100" width="600" height="600" viewBox="0 0 24 24" fill="none" xmlns="http://www.w3.org/2000/svg">
		<path d="M21 16.5C21 18.433 19.433 20 17.5 20C15.567 20 14 18.433 14 16.5C14 14.567 15.567 13 17.5 13C19.433 13 21 14.567 21 16.5Z" fill="#1C274C"/>
		<path fill-rule="evenodd" clip-rule="evenodd" d="M1.25 10C1.25 9.58579 1.58579 9.25 2 9.25H22C22.4142 9.25 22.75 9.58579 22.75 10C22.75 10.4142 22.4142 10.75 22 10.75H2C1.58579 10.75 1.25 10.4142 1.25 10Z" fill="#1C274C"/>
		<path opacity="0.5" d="M4.1875 9.25L4.6138 7.54479C5.15947 5.36211 5.43231 4.27077 6.24609 3.63538C7.05988 3 8.1848 3 10.4347 3H13.5653C15.8152 3 16.9401 3 17.7539 3.63538C18.5677 4.27077 18.8405 5.36211 19.3862 7.54479L19.8125 9.25H4.1875Z" fill="#1C274C"/>
		<path d="M10 16.5C10 18.433 8.433 20 6.5 20C4.567 20 3 18.433 3 16.5C3 14.567 4.567 13 6.5 13C8.433 13 10 14.567 10 16.5Z" fill="#1C274C"/>
		<path opacity="0.5" d="M9.88379 17.3966C9.9594 17.1104 9.99968 16.8099 9.99968 16.5C9.99968 16.2272 9.96845 15.9616 9.90939 15.7067L10.323 15.4999C11.3787 14.972 12.6214 14.972 13.6771 15.4999L14.09 15.7064C14.0309 15.9614 13.9997 16.227 13.9997 16.5C13.9997 16.8098 14.0399 17.1101 14.1155 17.3961L13.0063 16.8415C12.3728 16.5248 11.6273 16.5248 10.9938 16.8415L9.88379 17.3966Z" fill="#1C274C"/>
	</svg>
</svg>