<svg xmlns="http://www.w3.org/2000/svg" aria-hidden="true">
    <symbol id="svg-github-corner" viewBox="0 0 250 250">
        <!-- https://tholman.com/github-corners/ -->
        <path d="M0,0 L115,115 L130,115 L142,142 L250,250 L250,0 Z"></path>
        <path d="M128.3,109.0 C113.8,99.7 119.0,89.6 119.0,89.6 C122.0,82.7 120.5,78.6 120.5,78.6 C119.2,72.0 123.4,76.3 123.4,76.3 C127.3,80.9 125.5,87.3 125.5,87.3 C122.9,97.6 130.6,101.9 134.4,103.2" fill="currentColor" style="transform-origin: 130px 106px;" class="octo-arm"></path>
        <path d="M115.0,115.0 C114.9,115.1 118.7,116.5 119.8,115.4 L133.7,101.6 C136.9,99.2 139.9,98.4 142.2,98.6 C133.8,88.0 127.5,74.4 143.8,58.0 C148.5,53.4 154.0,51.2 159.7,51.0 C160.3,49.4 163.2,43.6 171.4,40.1 C171.4,40.1 176.1,42.5 178.8,56.2 C183.1,58.6 187.2,61.8 190.9,65.4 C194.5,69.0 197.7,73.2 200.1,77.6 C213.8,80.2 216.3,84.9 216.3,84.9 C212.7,93.1 206.9,96.0 205.4,96.6 C205.1,102.4 203.0,107.8 198.3,112.5 C181.9,128.9 168.3,122.5 157.7,114.1 C157.9,116.9 156.7,120.9 152.7,124.9 L141.0,136.5 C139.8,137.7 141.6,141.9 141.8,141.8 Z" fill="currentColor" class="octo-body"></path>
    </symbol>
    <symbol id="svg-MOE" viewBox="0 0 32 32">
        <!-- https://icp.gov.moe/moe-icon.zip -->
        <path d="M15.888 1.816c-0.024 0.032-1.552 0.592-4.048 1.504-0.768 0.28-2.64 0.968-4.16 1.52-1.52 0.56-3.024 1.104-3.344 1.216s-0.608 0.256-0.648 0.328c-0.216 0.4-0.568 3.864-0.568 5.544 0 1.864 0.28 4.328 0.688 5.992 1.024 4.176 3.152 7.432 6.256 9.584 1.44 1 3.064 1.768 4.896 2.336l1.008 0.304 0.88-0.256c6.432-1.92 10.368-6.472 11.6-13.408 0.352-2.008 0.448-4.992 0.232-7.296-0.12-1.328-0.336-2.792-0.424-2.872-0.032-0.024-0.616-0.248-1.296-0.496s-3.024-1.096-5.2-1.896c-5.824-2.136-5.832-2.136-5.872-2.104zM18.848 5.048c1.576 0.576 3.36 1.224 3.952 1.448 0.592 0.216 1.648 0.6 2.336 0.848 0.976 0.352 1.264 0.488 1.296 0.616 0.24 0.976 0.328 5.264 0.144 6.8-0.824 6.72-4.080 11.056-9.728 12.968l-0.904 0.304-0.872-0.312c-5.52-1.936-8.536-5.784-9.6-12.256-0.256-1.56-0.232-6.080 0.040-7.384l0.056-0.28 1.432-0.52c4.192-1.536 6.68-2.448 7.72-2.832 0.64-0.24 1.184-0.44 1.208-0.44 0.024-0.008 1.344 0.464 2.92 1.040z"></path>
        <path d="M15.624 5.080c-0.136 0.056-0.952 0.36-1.8 0.672-2.088 0.76-6.936 2.528-7.192 2.632-0.264 0.104-0.28 0.168-0.4 1.696-0.152 2.024-0.008 4.584 0.368 6.424 0.192 0.904 0.472 1.952 0.496 1.816 0.016-0.064 0.144-1.104 0.296-2.304 0.152-1.216 0.312-2.232 0.368-2.296 0.12-0.144 0.432-0.16 0.544-0.016 0.048 0.056 0.36 0.888 0.688 1.856s0.656 1.936 0.736 2.152l0.136 0.392 0.728-2.12c0.4-1.168 0.776-2.184 0.84-2.256 0.152-0.176 0.464-0.16 0.568 0.032 0.064 0.128 0.8 5.624 0.8 6 0 0.136-0.256 0.32-0.448 0.32-0.128 0-0.224-0.064-0.272-0.184-0.040-0.096-0.168-0.936-0.28-1.856-0.112-0.928-0.232-1.8-0.256-1.952-0.040-0.232-0.128-0.024-0.704 1.632-0.36 1.040-0.704 1.928-0.768 1.968-0.192 0.12-0.384 0.080-0.496-0.104-0.064-0.104-0.384-0.968-0.704-1.92-0.328-0.96-0.608-1.744-0.632-1.744s-0.152 0.928-0.296 2.056l-0.256 2.048 0.352 0.696c1.504 2.904 3.872 4.92 7.144 6.080l0.752 0.264 0.568-0.184c3.36-1.072 5.952-3.256 7.496-6.32l0.24-0.48h-1.384c-1.072 0-1.424-0.024-1.544-0.112-0.144-0.112-0.152-0.248-0.176-3.064-0.024-2.904-0.016-2.96 0.144-3.168l0.168-0.216h1.544c1.696 0 1.888 0.048 1.888 0.472 0 0.384-0.088 0.408-1.496 0.408h-1.304v2h1.304c1.168 0 1.328 0.016 1.44 0.144 0.176 0.192 0.168 0.44-0.008 0.6-0.128 0.112-0.352 0.136-1.44 0.136h-1.296v1.92h2.536l0.256-0.824c0.344-1.112 0.616-2.432 0.776-3.816 0.104-0.936 0.12-1.568 0.080-3.24-0.024-1.144-0.072-2.256-0.104-2.472l-0.064-0.392-1.32-0.472c-0.728-0.264-2.88-1.056-4.784-1.752s-3.488-1.272-3.52-1.272c-0.032 0.008-0.168 0.056-0.312 0.12zM16.224 6.376c0.256 0.488 0.264 0.496 0.72 0.584 0.248 0.048 0.504 0.104 0.56 0.12 0.184 0.064 0.096 0.296-0.264 0.704-0.24 0.272-0.344 0.464-0.32 0.568 0.016 0.096 0.048 0.36 0.080 0.592 0.064 0.544-0.056 0.592-0.688 0.288l-0.48-0.224-0.432 0.216c-0.464 0.224-0.64 0.264-0.712 0.144-0.024-0.032-0.016-0.312 0.024-0.616l0.064-0.552-0.344-0.416c-0.352-0.416-0.432-0.64-0.248-0.704 0.048-0.016 0.304-0.072 0.56-0.12 0.448-0.088 0.464-0.104 0.664-0.504 0.392-0.768 0.44-0.776 0.816-0.080zM9.272 8.44c0.248 0.4 0.288 0.432 0.632 0.48 0.592 0.080 0.736 0.12 0.736 0.208 0 0.040-0.144 0.272-0.312 0.504-0.296 0.392-0.304 0.44-0.24 0.776 0.16 0.848 0.096 0.92-0.608 0.624l-0.408-0.168-0.416 0.256c-0.576 0.352-0.656 0.304-0.656-0.424v-0.592l-0.368-0.336c-0.2-0.184-0.352-0.376-0.328-0.432 0.016-0.048 0.256-0.16 0.536-0.248 0.496-0.144 0.504-0.152 0.704-0.616 0.128-0.296 0.248-0.472 0.336-0.472 0.064 0 0.248 0.192 0.392 0.44zM23.456 9c0.136 0.464 0.152 0.488 0.584 0.672 0.272 0.12 0.44 0.24 0.44 0.32 0 0.072-0.184 0.248-0.4 0.4-0.304 0.208-0.4 0.32-0.4 0.48 0 0.4-0.104 0.824-0.208 0.864-0.056 0.024-0.272-0.096-0.472-0.256l-0.36-0.296-0.48 0.12c-0.632 0.152-0.688 0.088-0.472-0.552l0.168-0.48-0.256-0.432c-0.136-0.232-0.232-0.472-0.208-0.528 0.032-0.080 0.2-0.112 0.552-0.112 0.512 0 0.52 0 0.816-0.368 0.168-0.208 0.352-0.352 0.424-0.336 0.080 0.016 0.184 0.208 0.272 0.504zM18.176 13.856c1.632 0.752 2.344 2.792 1.544 4.424-1.232 2.536-4.76 2.288-5.664-0.392-0.192-0.56-0.176-1.608 0.016-2.176 0.32-0.912 1.072-1.656 1.968-1.952 0.648-0.216 1.536-0.176 2.136 0.096z"></path>
        <path d="M16.208 14.64c-0.488 0.192-1.024 0.704-1.264 1.192-0.248 0.528-0.248 1.496 0.008 2.024 0.208 0.44 0.768 0.984 1.192 1.16 0.44 0.192 1.256 0.176 1.712-0.032 1.416-0.648 1.792-2.632 0.704-3.768-0.648-0.672-1.56-0.896-2.352-0.576z"></path>
    </symbol>
</svg>